bw_sq_120_01
version=1
nRows=27
nColumns=46
inDegrees=yes
endheader
time	ground_force3_vx	ground_force3_vy	ground_force3_vz	ground_force3_px	ground_force3_py	ground_force3_pz	ground_torque3_x	ground_torque3_y	ground_torque3_z	ground_force5_vx	ground_force5_vy	ground_force5_vz	ground_force5_px	ground_force5_py	ground_force5_pz	ground_torque5_x	ground_torque5_y	ground_torque5_z	ground_force4_vx	ground_force4_vy	ground_force4_vz	ground_force4_px	ground_force4_py	ground_force4_pz	ground_torque4_x	ground_torque4_y	ground_torque4_z	ground_force1_vx	ground_force1_vy	ground_force1_vz	ground_force1_px	ground_force1_py	ground_force1_pz	ground_torque1_x	ground_torque1_y	ground_torque1_z	ground_force2_vx	ground_force2_vy	ground_force2_vz	ground_force2_px	ground_force2_py	ground_force2_pz	ground_torque2_x	ground_torque2_y	ground_torque2_z
1.825000	-0.000000	-0.000000	0.000000	0.200000	0.000000	-0.300000	0.000000	0.000000	-0.000000	-1.663581	409.894348	32.230598	0.224824	0.000000	-1.427398	0.000018	-4.943264	0.000005	-2.642036	319.183289	-20.840769	0.224047	0.000000	-0.959702	0.000012	4.107625	0.000003	-0.000000	-0.000000	0.000000	0.200000	0.000000	0.904000	0.000000	0.000000	-0.000000	-0.000000	-0.000000	0.000000	0.400000	0.000000	0.302000	0.000000	0.000000	-0.000000	
1.826000	-0.000000	-0.000000	0.000000	0.200000	0.000000	-0.300000	0.000000	0.000000	-0.000000	-1.986007	408.934723	31.586432	0.224689	0.000000	-1.425914	0.000064	-5.040544	0.000003	-3.128253	316.302917	-21.644459	0.224544	0.000000	-0.960143	0.000002	4.191969	0.000004	-0.000000	-0.000000	0.000000	0.200000	0.000000	0.904000	0.000000	0.000000	-0.000000	-0.000000	-0.000000	0.000000	0.400000	0.000000	0.302000	0.000000	0.000000	-0.000000	
1.827000	-0.000000	-0.000000	0.000000	0.200000	0.000000	-0.300000	0.000000	0.000000	-0.000000	-1.502878	410.847046	30.943956	0.224676	0.000000	-1.426968	0.000063	-4.978820	0.000007	-3.778601	317.898682	-21.323391	0.224701	0.000000	-0.959604	0.000001	4.054626	0.000006	-0.000000	-0.000000	0.000000	0.200000	0.000000	0.904000	0.000000	0.000000	-0.000000	-0.000000	-0.000000	0.000000	0.400000	0.000000	0.302000	0.000000	0.000000	-0.000000	
1.828000	-0.000000	-0.000000	0.000000	0.200000	0.000000	-0.300000	0.000000	0.000000	-0.000000	-1.664090	412.121948	32.069050	0.224741	0.000000	-1.426480	0.000056	-4.970230	0.000007	-3.129797	315.982361	-21.644459	0.224709	0.000000	-0.959614	0.000016	4.129257	0.000003	-0.000000	-0.000000	0.000000	0.200000	0.000000	0.904000	0.000000	0.000000	-0.000000	-0.000000	-0.000000	0.000000	0.400000	0.000000	0.302000	0.000000	0.000000	-0.000000	
1.829000	-0.000000	-0.000000	0.000000	0.200000	0.000000	-0.300000	0.000000	0.000000	-0.000000	-1.342684	410.208923	30.623564	0.224326	0.000000	-1.425956	0.000040	-4.737036	0.000008	-3.938099	315.969604	-20.356106	0.226503	0.000000	-0.960536	0.000008	4.216227	0.000001	-0.000000	-0.000000	0.000000	0.200000	0.000000	0.904000	0.000000	0.000000	-0.000000	-0.000000	-0.000000	0.000000	0.400000	0.000000	0.302000	0.000000	0.000000	-0.000000	
1.830000	-0.000000	-0.000000	0.000000	0.200000	0.000000	-0.300000	0.000000	0.000000	-0.000000	-1.180962	410.209595	31.426235	0.224575	0.000000	-1.427088	0.000030	-4.943363	0.000009	-4.747945	315.658752	-20.034016	0.225051	0.000000	-0.960787	-0.000001	4.194191	0.000003	-0.000000	-0.000000	0.000000	0.200000	0.000000	0.904000	0.000000	0.000000	-0.000000	-0.000000	-0.000000	0.000000	0.400000	0.000000	0.302000	0.000000	0.000000	-0.000000	
1.831000	-0.000000	-0.000000	0.000000	0.200000	0.000000	-0.300000	0.000000	0.000000	-0.000000	-1.019749	408.616150	31.427254	0.224748	0.000000	-1.426330	-0.000011	-4.853737	0.000006	-4.427404	315.338867	-19.873482	0.225528	0.000000	-0.959831	0.000016	4.028152	0.000001	-0.000000	-0.000000	0.000000	0.200000	0.000000	0.904000	0.000000	0.000000	-0.000000	-0.000000	-0.000000	0.000000	0.400000	0.000000	0.302000	0.000000	0.000000	-0.000000	
1.832000	-0.000000	-0.000000	0.000000	0.200000	0.000000	-0.300000	0.000000	0.000000	-0.000000	-0.858027	411.805359	30.462692	0.224996	0.000000	-1.427673	0.000066	-4.959011	0.000005	-4.425860	316.617126	-20.357124	0.225172	0.000000	-0.960069	0.000000	4.079442	0.000006	-0.000000	-0.000000	0.000000	0.200000	0.000000	0.904000	0.000000	0.000000	-0.000000	-0.000000	-0.000000	0.000000	0.400000	0.000000	0.302000	0.000000	0.000000	-0.000000	
1.833000	-0.000000	-0.000000	0.000000	0.200000	0.000000	-0.300000	0.000000	0.000000	-0.000000	-0.376426	410.208252	31.587109	0.224811	0.000000	-1.426168	0.000050	-4.841995	0.000007	-5.721922	315.653381	-19.711929	0.225635	0.000000	-0.960723	0.000016	4.124257	0.000003	-0.000000	-0.000000	0.000000	0.200000	0.000000	0.904000	0.000000	0.000000	-0.000000	-0.000000	-0.000000	0.000000	0.400000	0.000000	0.302000	0.000000	0.000000	-0.000000	
1.834000	-0.000000	-0.000000	0.000000	0.200000	0.000000	-0.300000	0.000000	0.000000	-0.000000	-1.503387	410.528503	30.462692	0.224558	0.000000	-1.425895	0.000024	-4.804264	0.000001	-5.560880	313.725952	-19.227264	0.226778	0.000000	-0.961372	0.000020	4.153912	0.000002	-0.000000	-0.000000	0.000000	0.200000	0.000000	0.904000	0.000000	0.000000	-0.000000	-0.000000	-0.000000	0.000000	0.400000	0.000000	0.302000	0.000000	0.000000	-0.000000	
1.835000	-0.000000	-0.000000	0.000000	0.200000	0.000000	-0.300000	0.000000	0.000000	-0.000000	-0.537129	410.209625	30.462353	0.224771	0.000000	-1.425690	0.000036	-4.838647	0.000004	-6.205050	312.770020	-19.710907	0.226432	0.000000	-0.960263	0.000012	4.300732	0.000004	-0.000000	-0.000000	0.000000	0.200000	0.000000	0.904000	0.000000	0.000000	-0.000000	-0.000000	-0.000000	0.000000	0.400000	0.000000	0.302000	0.000000	0.000000	-0.000000	
1.836000	-0.000000	-0.000000	0.000000	0.200000	0.000000	-0.300000	0.000000	0.000000	-0.000000	-0.215213	408.930054	30.302496	0.224681	0.000000	-1.425150	-0.000006	-4.710559	0.000009	-5.725011	315.326111	-18.745663	0.226743	0.000000	-0.961190	0.000015	3.994037	0.000000	-0.000000	-0.000000	0.000000	0.200000	0.000000	0.904000	0.000000	0.000000	-0.000000	-0.000000	-0.000000	0.000000	0.400000	0.000000	0.302000	0.000000	0.000000	-0.000000	
1.837000	-0.000000	-0.000000	0.000000	0.200000	0.000000	-0.300000	0.000000	0.000000	-0.000000	-0.858536	409.250610	29.819201	0.224325	0.000000	-1.425406	0.000022	-4.937760	0.000006	-6.044008	314.691345	-19.066730	0.226251	0.000000	-0.961373	0.000023	4.245625	0.000003	-0.000000	-0.000000	0.000000	0.200000	0.000000	0.904000	0.000000	0.000000	-0.000000	-0.000000	-0.000000	0.000000	0.400000	0.000000	0.302000	0.000000	0.000000	-0.000000	
1.838000	-0.000000	-0.000000	0.000000	0.200000	0.000000	-0.300000	0.000000	0.000000	-0.000000	-0.214704	413.076294	29.498808	0.224272	0.000000	-1.427696	0.000037	-4.761823	0.000004	-5.886054	315.645996	-19.548336	0.227077	0.000000	-0.960651	0.000013	4.156924	0.000005	-0.000000	-0.000000	0.000000	0.200000	0.000000	0.904000	0.000000	0.000000	-0.000000	-0.000000	-0.000000	0.000000	0.400000	0.000000	0.302000	0.000000	0.000000	-0.000000	
1.839000	-0.000000	-0.000000	0.000000	0.200000	0.000000	-0.300000	0.000000	0.000000	-0.000000	-0.375916	411.802032	29.498133	0.224629	0.000000	-1.426258	-0.000016	-4.830082	0.000005	-7.013352	316.929932	-19.388821	0.226586	0.000000	-0.959625	0.000026	4.369549	0.000002	-0.000000	-0.000000	0.000000	0.200000	0.000000	0.904000	0.000000	0.000000	-0.000000	-0.000000	-0.000000	0.000000	0.400000	0.000000	0.302000	0.000000	0.000000	-0.000000	
1.840000	-0.000000	-0.000000	0.000000	0.200000	0.000000	-0.300000	0.000000	0.000000	-0.000000	0.588813	411.483826	29.820217	0.224645	0.000000	-1.425705	0.000025	-4.557537	0.000004	-6.694356	315.961182	-19.066730	0.227517	0.000000	-0.961090	0.000023	4.176417	0.000004	-0.000000	-0.000000	0.000000	0.200000	0.000000	0.904000	0.000000	0.000000	-0.000000	-0.000000	-0.000000	0.000000	0.400000	0.000000	0.302000	0.000000	0.000000	-0.000000	
1.841000	-0.000000	-0.000000	0.000000	0.200000	0.000000	-0.300000	0.000000	0.000000	-0.000000	0.267407	410.204620	29.177063	0.223782	0.000000	-1.425799	0.000036	-4.644617	0.000005	-7.017985	314.370117	-18.745663	0.227021	0.000000	-0.960379	0.000014	4.133579	-0.000001	-0.000000	-0.000000	0.000000	0.200000	0.000000	0.904000	0.000000	0.000000	-0.000000	-0.000000	-0.000000	0.000000	0.400000	0.000000	0.302000	0.000000	0.000000	-0.000000	
1.842000	-0.000000	-0.000000	0.000000	0.200000	0.000000	-0.300000	0.000000	0.000000	-0.000000	0.911748	409.887390	29.177063	0.224321	0.000000	-1.425607	0.000016	-4.674361	0.000009	-7.179028	316.924561	-18.907215	0.227509	0.000000	-0.960299	0.000020	4.168817	0.000003	-0.000000	-0.000000	0.000000	0.200000	0.000000	0.904000	0.000000	0.000000	-0.000000	-0.000000	-0.000000	0.000000	0.400000	0.000000	0.302000	0.000000	0.000000	-0.000000	
1.843000	-0.000000	-0.000000	0.000000	0.200000	0.000000	-0.300000	0.000000	0.000000	-0.000000	0.428110	407.655853	29.659344	0.224474	0.000000	-1.425269	0.000027	-4.612325	0.000005	-7.341615	314.681946	-18.261000	0.228046	0.000000	-0.960410	0.000014	4.216172	0.000002	-0.000000	-0.000000	0.000000	0.200000	0.000000	0.904000	0.000000	0.000000	-0.000000	-0.000000	-0.000000	0.000000	0.400000	0.000000	0.302000	0.000000	0.000000	-0.000000	
1.844000	-0.000000	-0.000000	0.000000	0.200000	0.000000	-0.300000	0.000000	0.000000	-0.000000	1.233155	410.523834	29.176388	0.224300	0.000000	-1.425124	0.000008	-4.660797	0.000005	-7.827832	315.958496	-18.742603	0.227816	0.000000	-0.961421	0.000019	4.286640	0.000003	-0.000000	-0.000000	0.000000	0.200000	0.000000	0.904000	0.000000	0.000000	-0.000000	-0.000000	-0.000000	0.000000	0.400000	0.000000	0.302000	0.000000	0.000000	-0.000000	
1.845000	-0.000000	-0.000000	0.000000	0.200000	0.000000	-0.300000	0.000000	0.000000	-0.000000	0.590851	411.159607	29.337936	0.223881	0.000000	-1.426427	0.000001	-4.800375	0.000004	-8.637677	315.315674	-18.584108	0.228754	0.000000	-0.960705	0.000010	4.211902	0.000003	-0.000000	-0.000000	0.000000	0.200000	0.000000	0.904000	0.000000	0.000000	-0.000000	-0.000000	-0.000000	0.000000	0.400000	0.000000	0.302000	0.000000	0.000000	-0.000000	
1.846000	-0.000000	-0.000000	0.000000	0.200000	0.000000	-0.300000	0.000000	0.000000	-0.000000	1.072961	410.207611	28.855318	0.224577	0.000000	-1.425261	-0.000003	-4.731792	0.000006	-8.637677	316.278076	-17.779398	0.228287	0.000000	-0.961003	0.000002	4.164016	0.000007	-0.000000	-0.000000	0.000000	0.200000	0.000000	0.904000	0.000000	0.000000	-0.000000	-0.000000	-0.000000	0.000000	0.400000	0.000000	0.302000	0.000000	0.000000	-0.000000	
1.847000	-0.000000	-0.000000	0.000000	0.200000	0.000000	-0.300000	0.000000	0.000000	-0.000000	1.072452	410.204926	28.695122	0.224565	0.000000	-1.424976	0.000034	-4.605025	0.000007	-9.120805	314.992096	-18.583090	0.229050	0.000000	-0.961342	0.000015	4.386817	0.000002	-0.000000	-0.000000	0.000000	0.200000	0.000000	0.904000	0.000000	0.000000	-0.000000	-0.000000	-0.000000	0.000000	0.400000	0.000000	0.302000	0.000000	0.000000	-0.000000	
1.848000	-0.000000	-0.000000	0.000000	0.200000	0.000000	-0.300000	0.000000	0.000000	-0.000000	1.715775	410.522491	28.855656	0.224202	0.000000	-1.425765	-0.000009	-4.504084	0.000004	-9.605477	315.315674	-18.102507	0.228606	0.000000	-0.960639	0.000021	4.322280	0.000003	-0.000000	-0.000000	0.000000	0.200000	0.000000	0.904000	0.000000	0.000000	-0.000000	-0.000000	-0.000000	0.000000	0.400000	0.000000	0.302000	0.000000	0.000000	-0.000000	
1.849000	-0.000000	-0.000000	0.000000	0.200000	0.000000	-0.300000	0.000000	0.000000	-0.000000	2.682033	407.018707	28.213181	0.224751	0.000000	-1.424712	0.000022	-4.451812	0.000005	-9.610110	317.552917	-18.103523	0.228484	0.000000	-0.961580	0.000002	4.096595	0.000006	-0.000000	-0.000000	0.000000	0.200000	0.000000	0.904000	0.000000	0.000000	-0.000000	-0.000000	-0.000000	0.000000	0.400000	0.000000	0.302000	0.000000	0.000000	-0.000000	
1.850000	-0.000000	-0.000000	0.000000	0.200000	0.000000	-0.300000	0.000000	0.000000	-0.000000	1.876987	408.291290	28.212843	0.224578	0.000000	-1.424654	0.000041	-4.516762	0.000008	-9.123895	316.270325	-17.779398	0.229190	0.000000	-0.960974	0.000019	4.175666	0.000002	-0.000000	-0.000000	0.000000	0.200000	0.000000	0.904000	0.000000	0.000000	-0.000000	-0.000000	-0.000000	0.000000	0.400000	0.000000	0.302000	0.000000	0.000000	-0.000000	
1.851000	-0.000000	-0.000000	0.000000	0.200000	0.000000	-0.300000	0.000000	0.000000	-0.000000	2.360116	408.929077	27.731239	0.224435	0.000000	-1.425136	0.000033	-4.438319	0.000005	-9.445979	318.194397	-17.615803	0.228443	0.000000	-0.961772	0.000023	4.345369	0.000008	-0.000000	-0.000000	0.000000	0.200000	0.000000	0.904000	0.000000	0.000000	-0.000000	-0.000000	-0.000000	0.000000	0.400000	0.000000	0.302000	0.000000	0.000000	-0.000000	
